<?xml version="1.0" encoding="UTF-8" standalone="no"?>
<svg
   version="1.1"
   id="Layer_1"
   x="0px"
   y="0px"
   width="32"
   height="32"
   viewBox="0 0 31.999999 31.999999"
   enable-background="new 0 0 594.968 594.968"
   xml:space="preserve"
   sodipodi:docname="cookiewhitelist.svg"
   inkscape:version="1.3.2 (091e20ef0f, 2023-11-25, custom)"
   xmlns:inkscape="http://www.inkscape.org/namespaces/inkscape"
   xmlns:sodipodi="http://sodipodi.sourceforge.net/DTD/sodipodi-0.dtd"
   xmlns="http://www.w3.org/2000/svg"
   xmlns:svg="http://www.w3.org/2000/svg"><defs
   id="defs10" /><sodipodi:namedview
   id="namedview10"
   pagecolor="#ffffff"
   bordercolor="#666666"
   borderopacity="1.0"
   inkscape:showpageshadow="2"
   inkscape:pageopacity="0.0"
   inkscape:pagecheckerboard="0"
   inkscape:deskcolor="#d1d1d1"
   inkscape:zoom="15.099971"
   inkscape:cx="32.748407"
   inkscape:cy="21.52322"
   inkscape:window-width="1865"
   inkscape:window-height="1200"
   inkscape:window-x="2418"
   inkscape:window-y="86"
   inkscape:window-maximized="0"
   inkscape:current-layer="Layer_1" />
<path
   fill="#fbb164"
   d="m 31.554193,16.119511 c 0.229234,1.289787 -0.205841,2.495214 -0.489572,3.722636 -0.04775,1.335328 -1.276355,1.709824 -1.615634,2.94272 -0.537631,1.161182 -1.748551,1.206993 -2.318383,2.350667 -1.01965,0.718801 -1.577085,2.891413 -2.805601,3.300383 -0.920754,0.913624 -1.642799,1.786165 -2.768255,2.320694 -1.195125,0.319206 -2.413813,0.624732 -3.65508,0.8113 -1.427025,0.161284 -2.867912,-0.03465 -4.267176,-0.483275 -1.2819,0.04875 -2.507079,-0.118642 -3.6913948,-0.456437 C 8.8832814,29.948813 7.6691631,29.551832 6.6651873,28.776348 5.6023415,28.098924 5.2032219,26.913502 4.4801959,25.901192 3.5288686,25.050612 2.4829763,24.122677 1.8639287,23.039874 1.6576019,21.782782 0.57063995,20.776667 0.76101751,19.450124 0.43336187,18.036552 0.31136847,16.578046 0.41594932,15.130517 0.45826986,13.887091 0.54265897,12.637429 0.93436072,11.400508 1.218978,10.127963 2.1320572,9.1975607 2.5533328,7.9895364 3.2670501,6.7930954 4.2174304,5.7608538 5.1169015,4.7075978 6.0515205,3.8502949 7.2057304,3.2969752 8.1716541,2.4997817 9.2614723,1.8749492 10.459463,1.4631544 11.64721,1.0853544 c 1.604311,-0.66131864 3.393505,-0.49001229 5.087474,-0.70475041 1.285119,0.0297683 2.45502,0.49233678 3.694856,0.73173031 1.19042,0.3905995 2.382954,0.7998764 3.438729,1.5044086 1.254487,0.6440606 2.141251,1.7497346 3.28133,2.5466398 0.803298,0.9561775 0.898061,2.7265701 1.515796,3.7500414 0.403071,1.1799989 2.022962,1.4438939 2.249696,2.7024919 0.194396,1.238019 0.641748,2.43248 0.58498,3.712455 0.01317,0.264077 0.05418,0.52632 0.05412,0.79114 z"
   id="path1"
   sodipodi:nodetypes="ccccccccccccccccccccccccccc"
   style="stroke-width:0.0542966" />
<path
   fill="#ffffff"
   d="M 15.938307,0.48764402 C 14.68828,0.41972471 13.413812,0.53620801 12.229243,0.97198698 10.789651,1.1933695 9.4212542,1.7745053 8.2286099,2.6037044 7.2035411,3.2839278 5.9542779,3.776819 5.1958071,4.7909902 4.2599675,5.6132593 3.5091512,6.6544897 2.8058011,7.6805784 2.1744254,8.7659529 1.3697061,9.7891186 1.1713149,11.058357 c -0.33907911,1.208364 -0.87137368,2.421027 -0.71498915,3.682118 -0.49284811,1.168064 -0.0159397,2.458406 0.0613261,3.668791 -0.0592834,0.85677 0.48220056,2.758098 0.83890425,2.789102 0.6978672,-1.623193 2.3389978,-0.449336 3.5000378,-0.159854 1.2784257,0.451816 1.4419246,2.045205 1.9256194,3.154727 0.086496,1.110175 0.7941507,2.920554 2.2189533,2.466371 1.1532054,-0.457729 2.3848254,-0.346606 3.5873434,-0.615069 1.217083,-0.164094 2.268068,0.784927 3.117853,1.530915 1.235855,0.743116 2.466414,-0.118666 3.631866,-0.472263 1.110983,-0.902816 2.437521,-0.252507 3.650717,-0.339352 1.457442,-0.08624 1.767411,-1.651902 2.260308,-2.752821 0.126207,-0.957289 0.663068,-3.055262 1.832101,-2.624153 0.721109,1.313913 2.108438,0.485714 1.780209,-0.818481 0.29794,-1.159806 0.301839,-2.514741 1.103833,-3.459368 1.282492,0.436689 1.445164,-1.487424 1.618914,-2.466645 C 31.347617,13.416362 31.300886,12.127003 30.68865,10.994595 30.218584,9.7724597 29.240754,9.3720761 28.687141,8.2170686 27.583733,6.4818366 26.315947,4.6385413 24.827745,3.2585074 23.907373,2.2503616 22.434361,2.1268231 21.385724,1.3196097 20.087198,1.2873154 19.016073,0.4914881 17.701836,0.6410961 17.114944,0.57928662 16.529801,0.49472713 15.938307,0.48764402 Z"
   id="path2"
   sodipodi:nodetypes="ccccccccccccccccccccccccccc"
   style="opacity:0.2;stroke-width:0.0542966" />
<path
   fill="#7c411e"
   d="m 15.962874,6.7369551 c -0.04309,0.522469 -0.297162,0.999664 -0.549613,1.4472186 -0.309793,0.3770956 -0.807288,0.4998361 -1.237885,0.6823501 -0.645262,0.2093706 -1.427287,0.070025 -1.875021,-0.4679292 -0.64661,-0.6251626 -0.917178,-1.6303995 -0.600584,-2.4841235 0.136007,-0.4711233 0.421004,-0.9346591 0.90412,-1.104785 0.458986,-0.1663985 0.932377,-0.4957863 1.440503,-0.3364148 0.441568,0.1432013 0.863701,0.3725782 1.155231,0.7427783 0.297705,0.277445 0.647833,0.562409 0.703649,0.9945528 0.03932,0.1725747 0.0549,0.3496844 0.05959,0.5263527 z"
   id="path3"
   style="stroke-width:0.0542966" />
<path
   fill="#7c411e"
   d="m 8.9455465,12.792368 c 0.022048,0.444777 -0.091561,0.933228 -0.4569455,1.22033 -0.5121329,0.479245 -1.3434463,0.621555 -1.9520289,0.241993 -0.2905972,-0.186003 -0.6830001,-0.260126 -0.8581032,-0.586824 -0.1322958,-0.298639 -0.00897,-0.633364 -0.016501,-0.946793 -0.030077,-0.41877 0.1159129,-0.864948 0.4601294,-1.123089 0.2610144,-0.210375 0.5581442,-0.373777 0.8566023,-0.522634 0.4194617,-0.134695 0.8831904,0.02616 1.2275905,0.27371 0.2810178,0.22194 0.4096785,0.567412 0.5853344,0.868436 0.088343,0.178628 0.1555503,0.373269 0.153922,0.574871 z"
   id="path4"
   style="stroke-width:0.0542966" />
<path
   fill="#7c411e"
   d="m 17.727078,15.238369 c 0.06262,0.411832 0.04371,0.869074 -0.278666,1.174492 -0.281186,0.385266 -0.765819,0.479283 -1.185242,0.635785 -0.577816,0.184862 -1.264443,0.04476 -1.657249,-0.439486 -0.346644,-0.386805 -0.635534,-0.880928 -0.725879,-1.391309 0.06555,-0.428842 0.308563,-0.822612 0.586597,-1.148148 0.334754,-0.374569 0.776618,-0.630547 1.236647,-0.817424 0.4563,-0.142335 0.796524,0.320252 1.2245,0.385401 0.604303,0.229031 0.838974,1.009033 0.799292,1.600689 z"
   id="path5"
   style="stroke-width:0.0542966" />
<path
   fill="#7c411e"
   d="m 11.725473,22.690366 c -0.101618,0.488567 -0.402053,0.911132 -0.573617,1.373342 -0.317996,0.410276 -0.852729,0.539066 -1.3114338,0.725649 C 9.4230748,24.961542 9.0846883,24.618831 8.7230787,24.477978 8.399321,24.39197 7.9854905,24.321917 7.8820086,23.940352 7.796329,23.435175 7.4803383,22.986757 7.5168366,22.457239 c -0.049088,-0.530898 0.2041883,-1.08081 0.6325776,-1.392533 0.4401833,-0.158665 0.8920988,-0.335105 1.3593093,-0.403469 0.7178885,-0.01412 1.5505665,0.252487 1.8792935,0.947364 0.164585,0.336314 0.31994,0.703172 0.337456,1.081765 z"
   id="path6"
   style="stroke-width:0.0542966" />
<path
   fill="#7c411e"
   d="m 22.947832,20.868836 c 0.01309,0.531812 -0.148719,1.10431 -0.532946,1.483618 -0.553575,0.47351 -1.359852,0.56792 -2.043919,0.379933 -0.378538,-0.147518 -0.554818,-0.5528 -0.875347,-0.78599 -0.47845,-0.468287 -0.448275,-1.245155 -0.210907,-1.826298 0.147247,-0.410537 0.431151,-0.840987 0.903317,-0.887821 0.368289,-0.130909 0.721809,-0.37187 1.131815,-0.301732 0.407848,0.02059 0.77864,0.2397 1.029516,0.555803 0.302611,0.340803 0.458945,0.787758 0.582981,1.218618 l 0.0111,0.08136 z"
   id="path7"
   style="stroke-width:0.0542966" />
<path
   fill="#7c411e"
   d="m 28.293357,15.858462 c 0.02412,0.447967 -0.154311,0.895335 -0.519434,1.163789 -0.279844,0.272037 -0.678016,0.340048 -0.985038,0.570099 -0.333566,0.239731 -0.669731,-0.07065 -0.975852,-0.196972 -0.409733,-0.116704 -0.770873,-0.396736 -0.91219,-0.812154 -0.149662,-0.362826 -0.04423,-0.764682 -0.08683,-1.14484 0.04397,-0.341377 0.181967,-0.707227 0.436977,-0.941989 0.392581,-0.135841 0.790866,-0.276758 1.196327,-0.371436 0.484068,-0.07788 0.98024,0.09865 1.293363,0.479813 0.327598,0.334898 0.544931,0.779859 0.552677,1.25369 z"
   id="path8"
   style="stroke-width:0.0542966" />
<path
   fill="#7c411e"
   d="m 24.377519,8.7089428 c 0.0015,0.2892717 0.0228,0.6057536 -0.150986,0.8556156 -0.150802,0.2475604 -0.318923,0.5306946 -0.60943,0.6264376 -0.270093,0.06399 -0.545426,-0.02289 -0.818451,-0.0083 -0.269893,0.0012 -0.546556,-0.05319 -0.770001,-0.2127026 -0.267485,-0.1566781 -0.521545,-0.3803276 -0.601906,-0.6922892 -0.11562,-0.4435045 -0.1054,-0.9444236 0.126115,-1.3502303 0.189389,-0.3234218 0.572313,-0.4303684 0.851805,-0.6527805 0.179994,-0.1346693 0.400338,-0.2441997 0.631187,-0.1995038 0.538077,0.069677 1.046844,0.4032239 1.289031,0.89542 0.0943,0.2344405 0.05038,0.4929963 0.05265,0.7383271 z"
   id="path9"
   style="stroke-width:0.0542966" />
<path
   fill="none"
   stroke="#63300f"
   stroke-width="0.760153"
   stroke-miterlimit="10"
   d="m 28.974071,22.389994 c -0.52771,1.13983 -2.200975,1.595772 -2.760292,2.718415 -1.000837,0.705582 -1.331596,2.228061 -2.537446,2.62951 -0.903762,0.896822 -1.117684,2.223218 -2.222373,2.747918 -1.173073,0.313336 -2.369274,0.613243 -3.587638,0.79638 -1.400694,0.158318 -2.649426,-0.06371 -4.022871,-0.5041 -1.258248,0.04785 -2.626388,-0.08676 -3.788851,-0.418331 C 9.0143388,29.692893 7.8226229,29.303212 6.837172,28.541988 5.7939374,27.877021 5.3679371,26.674695 4.6582521,25.680998 3.7244784,24.846062 2.7321294,23.973892 2.1245042,22.911001 1.8780202,21.621033 0.80829937,20.56836 1.0286043,19.190215 0.61028612,17.811307 0.693513,16.360629 0.66834347,14.949239 0.84535088,13.742352 0.80377277,12.497571 1.2762048,11.30077 1.5808219,10.064714 2.4934813,9.1605962 2.8882488,7.963177 3.6694888,6.8441528 4.3634898,5.6616191 5.3174586,4.6916598 6.2396746,3.8542571 7.7753492,3.6676026 8.7096891,2.8602787 9.8180118,2.3038416 10.744213,1.6825486 11.906516,1.2812578 13.444548,0.73865386 15.118381,0.86200095 16.72087,0.66840498 c 1.261408,0.0292209 2.499868,0.95163192 3.716826,1.18662332 1.168455,0.3834167 2.248839,0.3168191 3.285134,1.0083959 1.23134,0.6322171 2.101742,1.7175592 3.220784,2.4998103 0.788476,0.9385946 1.072052,2.2816325 1.678391,3.2862833 0.395635,1.1583005 1.795071,1.8121432 2.017622,3.0475972 0.190809,1.215253 0.09886,2.528789 0.04314,3.785227 z"
   id="path10"
   sodipodi:nodetypes="ccccccccccccccccccccccccc"
   style="stroke-width:1.33495;stroke-dasharray:none" />
<path
   d="m 15.883034,25.11434 c 0,0 0.613492,-0.657925 1.475287,-1.385718 0.861793,-0.727791 2.087326,-1.865333 2.087326,-1.865333 l 3.403612,5.140403 c 0,0 2.054657,-4.697905 4.764914,-8.187673 2.710259,-3.48977 4.083901,-4.867483 4.083901,-4.867483 0,0 0.204014,2.205941 0.25048,3.934452 0.04574,1.728507 -0.25048,3.904609 -0.25048,3.904609 0,0 -2.24197,0.866804 -4.446913,3.699374 -2.829327,3.6346 -4.129641,6.337625 -4.129641,6.337625 0,0 -1.13478,-1.090961 -3.131354,-3.183369 -1.996573,-2.092404 -4.107132,-3.526887 -4.107132,-3.526887 z"
   fill="#018700"
   id="path3-7"
   style="stroke-width:0.726912" /></svg>
